<svg width="25" height="15" viewBox="0 0 25 15" fill="none" xmlns="http://www.w3.org/2000/svg">
<path fill-rule="evenodd" clip-rule="evenodd" d="M24.1164 1.87622C24.2824 1.33022 24.1164 0.928223 23.3214 0.928223H20.6964C20.0284 0.928223 19.7204 1.27522 19.5534 1.65822C19.5534 1.65822 18.2184 4.85422 16.3274 6.93022C15.7154 7.53222 15.4374 7.72322 15.1034 7.72322C14.9364 7.72322 14.6854 7.53222 14.6854 6.98522V1.87622C14.6854 1.22022 14.5014 0.928223 13.9454 0.928223H9.81738C9.40038 0.928223 9.14938 1.23222 9.14938 1.52122C9.14938 2.14222 10.0954 2.28622 10.1924 4.03422V7.83222C10.1924 8.66522 10.0394 8.81622 9.70538 8.81622C8.81538 8.81622 6.65038 5.60522 5.36538 1.93122C5.11638 1.21622 4.86438 0.928223 4.19338 0.928223H1.56638C0.816382 0.928223 0.666382 1.27522 0.666382 1.65822C0.666382 2.34022 1.55638 5.72822 4.81138 10.2092C6.98138 13.2692 10.0364 14.9282 12.8194 14.9282C14.4884 14.9282 14.6944 14.5602 14.6944 13.9252V11.6122C14.6944 10.8752 14.8524 10.7282 15.3814 10.7282C15.7714 10.7282 16.4384 10.9202 17.9964 12.3952C19.7764 14.1442 20.0694 14.9282 21.0714 14.9282H23.6964C24.4464 14.9282 24.8224 14.5602 24.6064 13.8322C24.3684 13.1082 23.5184 12.0572 22.3914 10.8102C21.7794 10.1002 20.8614 9.33522 20.5824 8.95222C20.1934 8.46122 20.3044 8.24222 20.5824 7.80522C20.5824 7.80522 23.7824 3.37922 24.1154 1.87622H24.1164Z" fill="#83B3D3"/>
</svg>
